<svg xmlns="http://www.w3.org/2000/svg" viewBox="0 0 128 128" width="128" height="128">
  <defs>
    <linearGradient id="blueGrad" x1="0%" y1="0%" x2="100%" y2="100%">
      <stop offset="0%" stop-color="#3b82f6" />
      <stop offset="100%" stop-color="#60a5fa" />
    </linearGradient>
    <filter id="shadow" x="-10%" y="-10%" width="120%" height="120%">
      <feDropShadow dx="0" dy="4" stdDeviation="4" flood-color="#3b82f6" flood-opacity="0.25" />
    </filter>
  </defs>
  <!-- Background circle with shadow -->
  <circle cx="64" cy="64" r="54" fill="url(#blueGrad)" filter="url(#shadow)" />
  <!-- Sparkles/AI Sparks -->
  <path d="M 64 34 L 66.5 44 L 76.5 44 L 68.5 50 L 71.5 60 L 64 54 L 56.5 60 L 59.5 50 L 51.5 44 L 61.5 44 Z" fill="#ffffff" />
  <!-- YouTube play icon inside a chatbot bubble shape -->
  <path d="M 52 54 L 80 70 L 52 86 Z" fill="#ffffff" opacity="0.9" />
  <!-- Sparkle 2 -->
  <path d="M 90 32 L 91.5 37 L 96.5 37 L 92.5 40 L 94 45 L 90 42 L 86 45 L 87.5 40 L 83.5 37 L 88.5 37 Z" fill="#e0f2fe" />
  <!-- Sparkle 3 -->
  <path d="M 38 78 L 39 81 L 42 81 L 39.5 83 L 40.5 86 L 38 84 L 35.5 86 L 36.5 83 L 34 81 L 37 81 Z" fill="#e0f2fe" />
</svg>
